<svg width="42" height="42" viewBox="0 0 42 42" fill="none" xmlns="http://www.w3.org/2000/svg">
                                                        <path d="M34.8417 0.76001H7.15849L0.76001 6.24434V35.7557L7.15849 41.24H34.8417L41.2402 35.7557L41.2399 6.24434L34.8417 0.76001ZM36.9312 8.42069L32.9267 4.98221L34.7114 2.37043L39.4995 6.50542L36.9312 8.42069ZM29.2703 32.5782H12.73L9.42205 29.7491L9.42174 12.2512L12.7297 9.37836H29.27L32.578 12.2075V29.7053L29.2703 32.5782ZM29.1835 8.116H12.8173L11.1632 5.7657H30.7939L29.1835 8.116ZM11.6421 8.63854L8.72576 11.1197L6.11398 9.20447L9.81393 6.02707L11.6421 8.63854ZM8.11614 12.2947V29.7056L5.76584 31.4465V10.5535L8.11614 12.2947ZM8.72551 30.8808L11.6418 33.362L9.85713 35.9738L6.15718 32.7964L8.72551 30.8808ZM12.8171 33.8842H29.1398L30.7939 36.2345H11.2067L12.8171 33.8842ZM30.3585 33.3617L33.2748 30.8805L35.8866 32.7958L32.1867 35.9732L30.3585 33.3617ZM33.8844 29.7055V12.2947L36.2348 10.5538V31.4467L33.8844 29.7055ZM33.2751 11.1194L30.3588 8.63825L32.1435 6.02647L35.8434 9.20387L33.2751 11.1194ZM31.7081 4.41644H10.2928L8.6387 2.06613H33.3621L31.7081 4.41644ZM9.07405 4.98238L5.06956 8.42086L2.45778 6.5056L7.24591 2.3706L9.07405 4.98238ZM4.41681 9.59617V32.4043L2.06651 34.1453L2.0662 7.85493L4.41681 9.59617ZM5.06959 33.5796L9.07408 37.0181L7.28939 39.6298L2.50126 35.4948L5.06959 33.5796ZM10.2928 37.5841H31.7081L33.3622 39.9344L8.63881 39.9347L10.2928 37.5841ZM32.9268 37.0181L36.9313 33.5796L39.5431 35.4949L34.755 39.6299L32.9268 37.0181ZM37.5841 32.4043V9.59616L39.9344 7.85523V34.1891L37.5841 32.4043Z" fill="#0a466b"></path>
                                                    </svg>