<svg width="42" height="42" viewBox="0 0 44 44" fill="none" xmlns="http://www.w3.org/2000/svg">
                                                        <path fill-rule="evenodd" clip-rule="evenodd" d="M19.9311 3.11017C17.8383 3.11017 15.9366 3.21926 14.1272 3.44201C11.9392 3.71186 9.65419 4.10915 7.76297 5.18883C5.71567 6.35663 4.8926 8.71567 4.40464 10.6405C2.95957 16.3412 2.72212 22.9468 3.71856 29.7445C3.76851 30.0823 3.82046 30.4196 3.87386 30.7578C4.2502 33.0974 4.68995 35.3454 5.92462 37.1136C7.23675 38.9939 9.52466 39.6989 11.5898 40.1407C13.9819 40.6519 16.6482 40.8902 19.9792 40.8902H24.0805C26.8303 40.8902 29.2089 40.7142 31.3544 40.3525C33.8938 39.9239 36.448 39.2703 37.9262 37.3981C39.1709 35.8229 39.6686 33.6203 40.0383 31.6792C40.3906 29.8259 40.6308 27.7677 40.7718 25.3868C40.8413 24.1941 40.8797 23.0843 40.8872 21.9955V21.9949C40.9176 18.1824 40.5809 14.7396 39.8598 11.4692C39.3638 9.22265 38.5247 6.48691 36.4251 5.26318C34.472 4.125 32.0569 3.7056 29.9519 3.44435C28.0231 3.20551 25.9784 3.09499 23.7234 3.11165C22.5947 3.11911 21.4668 3.11911 20.3361 3.11165C20.2006 3.1105 20.0657 3.1105 19.9313 3.1105L19.9311 3.11017ZM24.0805 42.24H19.9792C16.5506 42.24 13.7954 41.9926 11.3076 41.4609C8.98504 40.9637 6.39774 40.1507 4.81826 37.8866C3.42029 35.8841 2.94343 33.4725 2.54211 30.9707C2.48728 30.6268 2.43331 30.2841 2.38336 29.9404C1.36202 22.9688 1.60887 16.1805 3.09642 10.3088C3.65046 8.1257 4.60491 5.43647 7.09433 4.01698C9.19131 2.82022 11.6348 2.38987 13.9623 2.10312C15.9459 1.85883 18.0311 1.74487 20.3446 1.76238C21.4679 1.76984 22.5917 1.76927 23.7136 1.76238C26.042 1.74142 28.1301 1.85969 30.1174 2.10571C32.3579 2.38301 34.9398 2.83657 37.1048 4.0979C39.6563 5.58486 40.6211 8.66277 41.1768 11.1778C41.9212 14.5496 42.2671 18.0908 42.237 22.0055V22.0049C42.2281 23.1181 42.189 24.2501 42.1181 25.4664C41.9737 27.9053 41.7268 30.0204 41.3637 31.931C40.9644 34.0298 40.4178 36.4207 38.9851 38.2349C37.2242 40.4652 34.3846 41.21 31.5782 41.6829C29.3587 42.0575 26.9057 42.2395 24.0802 42.2395" fill="#0a466b"></path>
                                                        <path fill-rule="evenodd" clip-rule="evenodd" d="M15.772 28.2278L21.999 30.7184L28.2268 28.2278L30.7174 22.0009L28.2268 15.773L21.999 13.2822L15.772 15.773L13.2811 22.0009L15.772 28.2278ZM21.999 32.1204C21.914 32.1204 21.8296 32.1043 21.7487 32.0719L15.0024 29.3732C14.8301 29.3043 14.6946 29.1688 14.6266 28.9974L11.9279 22.2508C11.8639 22.0898 11.8639 21.911 11.9279 21.7496L14.6266 15.0033C14.6946 14.832 14.8301 14.6962 15.0024 14.6276L21.7487 11.9289C21.91 11.8649 22.0888 11.8649 22.2501 11.9289L28.9964 14.6276C29.1678 14.6962 29.3042 14.832 29.3722 15.0033L32.0709 21.7496C32.1349 21.911 32.1349 22.0898 32.0709 22.2508L29.3722 28.9974C29.3042 29.1688 29.1678 29.3043 28.9964 29.3732L22.2501 32.0719C22.1692 32.1043 22.0839 32.1204 21.999 32.1204Z" fill="#0a466b"></path>
                                                        <path fill-rule="evenodd" clip-rule="evenodd" d="M29.7424 28.0715H35.1923L40.6554 21.9996L35.1923 15.9279H29.7424L32.0713 21.7487C32.1353 21.91 32.1353 22.0894 32.0713 22.2508L29.7424 28.0715ZM35.4925 29.4207H28.746C28.5221 29.4207 28.3134 29.3093 28.1873 29.1245C28.0625 28.939 28.0369 28.7036 28.1199 28.4952L30.7178 21.9995L28.1199 15.5041C28.0369 15.2957 28.0625 15.0603 28.1873 14.8746C28.3134 14.6897 28.5221 14.5786 28.746 14.5786H35.4925C35.684 14.5786 35.8663 14.6602 35.9943 14.8017L42.0643 21.5483C42.2948 21.8046 42.2948 22.1947 42.0643 22.4511L35.9943 29.1974C35.8663 29.3392 35.684 29.4207 35.4925 29.4207V29.4207Z" fill="#0a466b"></path>
                                                        <path fill-rule="evenodd" clip-rule="evenodd" d="M32.2315 21.9996L35.6013 27.616L40.655 21.9996L35.6013 16.3832L32.2315 21.9996ZM35.4928 29.4204C35.471 29.4204 35.45 29.4199 35.4279 29.4178C35.2146 29.3969 35.0243 29.2769 34.9144 29.0932L30.8665 22.3469C30.7379 22.133 30.7379 21.8658 30.8665 21.6519L34.9144 14.9053C35.0243 14.7219 35.2146 14.6019 35.4279 14.5809C35.6412 14.562 35.8507 14.6424 35.994 14.8014L42.0637 21.548C42.295 21.8043 42.295 22.1945 42.0637 22.4508L35.994 29.1971C35.8657 29.34 35.6828 29.4204 35.4928 29.4204V29.4204Z" fill="#0a466b"></path>
                                                        <path fill-rule="evenodd" clip-rule="evenodd" d="M8.80533 28.0715H14.2549L11.9262 22.2508C11.8619 22.0894 11.8619 21.91 11.9262 21.7487L14.2549 15.9279H8.80533L3.34192 21.9996L8.80533 28.0715ZM15.2513 29.4207H8.50505C8.31329 29.4207 8.1313 29.3392 8.00384 29.1974L1.93335 22.4511C1.70255 22.1947 1.70255 21.8046 1.93335 21.5483L8.00384 14.8017C8.1313 14.6602 8.31329 14.5786 8.50505 14.5786H15.2513C15.4755 14.5786 15.6839 14.6897 15.81 14.8746C15.9348 15.0603 15.9607 15.2957 15.8774 15.5041L13.2795 21.9995L15.8774 28.4952C15.9607 28.7036 15.9348 28.939 15.81 29.1245C15.684 29.3093 15.4755 29.4207 15.2513 29.4207V29.4207Z" fill="#0a466b"></path>
                                                        <path fill-rule="evenodd" clip-rule="evenodd" d="M3.34215 22L8.39593 27.6164L11.7657 22L8.39593 16.3836L3.34215 22ZM8.5044 29.4208C8.31408 29.4208 8.13208 29.3405 8.00319 29.1975L1.93351 22.4512C1.70185 22.1949 1.70185 21.8048 1.93351 21.5484L8.00319 14.8018C8.14615 14.6428 8.35742 14.5624 8.56928 14.5814C8.78227 14.6023 8.97346 14.7223 9.08341 14.9058L13.1313 21.6523C13.2593 21.8662 13.2593 22.1335 13.1313 22.3473L9.08341 29.0936C8.97346 29.2773 8.78227 29.3973 8.56928 29.4183C8.54775 29.4203 8.52679 29.4209 8.5044 29.4209L8.5044 29.4208Z" fill="#0a466b"></path>
                                                        <path fill-rule="evenodd" clip-rule="evenodd" d="M15.9273 35.1942L21.9987 40.6567L28.071 35.1942V29.7443L22.2496 32.0732C22.0888 32.1372 21.9094 32.1372 21.749 32.0732L15.9273 29.7443L15.9273 35.1942ZM21.9987 42.2387C21.8374 42.2387 21.6761 42.1813 21.5472 42.0659L14.8015 35.9956C14.6591 35.8679 14.5781 35.6859 14.5781 35.4941V28.7478C14.5781 28.5239 14.6895 28.3146 14.8744 28.1892C15.0604 28.0637 15.2966 28.0388 15.503 28.1217L21.9992 30.7197L28.4955 28.1217C28.701 28.0379 28.9378 28.0637 29.1241 28.1892C29.309 28.3146 29.4204 28.5239 29.4204 28.7478V35.4941C29.4204 35.6859 29.3394 35.8679 29.197 35.9962L22.4499 42.0659C22.3216 42.1813 22.1597 42.2387 21.9987 42.2387L21.9987 42.2387Z" fill="#0a466b"></path>
                                                        <path fill-rule="evenodd" clip-rule="evenodd" d="M16.383 35.6028L21.9985 40.656L27.6158 35.6028L21.9994 32.2324L16.383 35.6028ZM21.9985 42.2379C21.8375 42.2379 21.6762 42.1805 21.5473 42.0651L14.8016 35.9954C14.6428 35.8522 14.5613 35.6418 14.5817 35.4288C14.6018 35.2161 14.7226 35.0252 14.9061 34.9152L21.6527 30.8674C21.8657 30.7393 22.1329 30.7393 22.3468 30.8674L29.0933 34.9152C29.2762 35.0252 29.3968 35.2161 29.4172 35.4294C29.4381 35.6418 29.3557 35.8522 29.1973 35.9954L22.4502 42.0651C22.3219 42.1805 22.16 42.2379 21.9986 42.2379H21.9985Z" fill="#0a466b"></path>
                                                        <path fill-rule="evenodd" clip-rule="evenodd" d="M21.9987 11.8799C22.0836 11.8799 22.1686 11.8963 22.249 11.9278L28.0704 14.2568V8.80688L21.9981 3.34435L15.9267 8.80688V14.2568L21.7484 11.9278C21.8288 11.8963 21.9137 11.8799 21.9987 11.8799H21.9987ZM28.7453 15.9278C28.66 15.9278 28.5751 15.9123 28.495 15.8798L21.9988 13.2814L15.5026 15.8798C15.2956 15.9617 15.0593 15.9381 14.8739 15.8118C14.689 15.6864 14.5776 15.4771 14.5776 15.2532V8.50689C14.5776 8.31513 14.6586 8.13314 14.801 8.0054L21.5467 1.93571C21.8039 1.70434 22.1923 1.70434 22.4495 1.93514L29.1966 8.00482C29.339 8.13314 29.4199 8.31514 29.4199 8.50689V15.2532C29.4199 15.4771 29.3085 15.6864 29.1237 15.8118C29.0103 15.8887 28.8782 15.9278 28.7453 15.9278" fill="#0a466b"></path>
                                                        <path fill-rule="evenodd" clip-rule="evenodd" d="M16.383 8.39759L21.9994 11.768L27.6158 8.39759L21.9986 3.3444L16.383 8.39759ZM21.9994 13.2294C21.8792 13.2294 21.7592 13.197 21.6527 13.133L14.9061 9.08511C14.7226 8.97488 14.6018 8.78398 14.5817 8.57155C14.5613 8.35827 14.6428 8.14785 14.8016 8.00489L21.5473 1.93521C21.8042 1.70442 22.1929 1.70442 22.4501 1.93521L29.1972 8.00489C29.3556 8.14785 29.438 8.35827 29.4171 8.57098C29.3967 8.78398 29.2761 8.97488 29.0933 9.08511L22.3467 13.133C22.2402 13.197 22.1193 13.2294 21.9993 13.2294H21.9994Z" fill="#0a466b"></path>
                                                        <path fill-rule="evenodd" clip-rule="evenodd" d="M29.4207 14.5777L34.9387 14.5783L36.5813 6.24034L29.4207 8.97057V14.5777ZM35.4933 15.9278L28.7462 15.9269C28.373 15.9269 28.0713 15.6246 28.0713 15.2523V8.50603C28.0713 8.22586 28.2441 7.97496 28.5059 7.87507L37.2385 4.54569C37.4693 4.45928 37.7265 4.50263 37.914 4.66051C38.1014 4.81897 38.1884 5.06584 38.1413 5.30669L36.1552 15.3834C36.0932 15.7 35.8158 15.9274 35.4935 15.9274L35.4933 15.9278Z" fill="#0a466b"></path>
                                                        <path fill-rule="evenodd" clip-rule="evenodd" d="M7.4521 6.27012L9.06341 14.5794L14.5785 14.578V8.97254L7.4521 6.27012ZM8.50592 15.9287C8.18355 15.9287 7.90567 15.6999 7.84424 15.3821L5.8971 5.33774C5.8506 5.09776 5.93758 4.8506 6.12446 4.69357C6.3122 4.53569 6.56912 4.49177 6.79848 4.57875L15.4929 7.87506C15.7552 7.97496 15.9281 8.22585 15.9281 8.50602V15.2523C15.9281 15.6255 15.6264 15.9269 15.2532 15.9269L8.50592 15.9287Z" fill="#0a466b"></path>
                                                        <path fill-rule="evenodd" clip-rule="evenodd" d="M9.06188 29.4215L7.45285 37.7153L14.5783 35.0282V29.4224L9.06188 29.4215ZM6.56012 39.4474C6.40367 39.4474 6.24865 39.3929 6.12522 39.289C5.93834 39.1311 5.85107 38.8842 5.89844 38.6445L7.8433 28.6185C7.90474 28.3011 8.1829 28.0723 8.50584 28.0723L15.2529 28.0728C15.6255 28.0728 15.9275 28.3751 15.9275 28.7474V35.494C15.9275 35.7748 15.7536 36.0262 15.4906 36.1256L6.79845 39.4044C6.72094 39.4334 6.64057 39.4474 6.56019 39.4474L6.56012 39.4474Z" fill="#0a466b"></path>
                                                        <path fill-rule="evenodd" clip-rule="evenodd" d="M29.4206 35.0293L36.5699 37.7495L34.9379 29.4218L29.4206 29.4224V35.0293ZM37.4646 39.4865C37.3837 39.4865 37.3027 39.4724 37.2246 39.4425L28.506 36.1247C28.2442 36.0257 28.0708 35.7739 28.0708 35.494V28.7474C28.0708 28.3751 28.3722 28.0728 28.7454 28.0728L35.4925 28.0723C35.8149 28.0723 36.093 28.3002 36.1542 28.6174L38.1263 38.6823C38.1734 38.9226 38.0864 39.1701 37.8989 39.3279C37.7755 39.4319 37.6211 39.4864 37.4643 39.4864L37.4646 39.4865Z" fill="#0a466b"></path>
                                                    </svg>