<svg width="42" height="42" viewBox="0 0 42 42" fill="none" xmlns="http://www.w3.org/2000/svg">
                                                        <path d="M0.76001 0.76001V41.24H41.24V0.76001H0.76001ZM34.7545 12.2076L30.4453 11.5111L29.7488 7.20184L39.2376 2.76233L34.7545 12.2076ZM7.24552 29.7924L11.5548 30.4889L12.2513 34.7982L2.76239 39.2377L7.24552 29.7924ZM34.1887 28.5737L30.7064 29.1396L31.664 23.1762L34.1887 28.5737ZM30.6631 21.0871L29.3138 29.3136L21.0437 30.6629L21 30.6195L20.9128 30.6629L12.6863 29.3136L11.337 21.0435L11.3804 20.9564L11.337 20.8693L12.6863 12.5991L20.9128 11.2499L21 11.2933L21.0871 11.2499L29.3572 12.5991L30.7065 20.8257L30.6196 20.9997L30.6631 21.0871ZM7.81144 13.4262L11.2937 12.8602L10.3361 18.8236L7.81144 13.4262ZM23.1764 10.3359L28.5302 7.81136L29.0961 11.2936L23.1764 10.3359ZM21.0001 9.94425L15.8641 7.50651H26.1799L21.0001 9.94425ZM18.8237 10.3359L12.9041 11.2935L13.47 7.81129L18.8237 10.3359ZM11.5114 11.5112L7.20214 12.2077L2.76232 2.76239L12.2077 7.20221L11.5114 11.5112ZM9.94442 21.0001L7.50668 26.1361V15.8638L9.94442 21.0001ZM10.3361 23.1764L11.2937 29.0961L7.81145 28.5301L10.3361 23.1764ZM12.8606 30.7065L18.8238 31.6641L13.47 34.1887L12.8606 30.7065ZM21.0002 32.0558L26.1362 34.4935H15.8638L21.0002 32.0558ZM23.1765 31.6641L29.0962 30.7065L28.5302 34.1887L23.1765 31.6641ZM30.4889 30.4888L34.7981 29.7923L39.2379 39.2376L29.7926 34.7547L30.4889 30.4888ZM32.0558 20.9999L34.4936 15.8639V26.1798L32.0558 20.9999ZM31.6642 18.8236L30.7066 12.9039L34.1888 13.4699L31.6642 18.8236ZM28.9222 6.20078H13.0784L4.32953 2.0655H37.6711L28.9222 6.20078ZM6.20118 13.0778V28.9216L2.06589 37.6705V4.3289L6.20118 13.0778ZM13.0782 35.7988H28.922L37.6709 39.9338L4.32929 39.9341L13.0782 35.7988ZM35.7992 28.9218V13.078L39.9342 4.32913V37.6707L35.7992 28.9218Z" fill="#0a466b"></path>
                                                    </svg>