<svg width="42" height="42" viewBox="0 0 42 42" fill="none" xmlns="http://www.w3.org/2000/svg">
                                                        <path d="M41.2399 20.9785C41.2399 18.1957 40.6739 15.5434 39.6729 13.1519V13.1086V13.0652C38.6718 10.7174 37.2354 8.58666 35.4508 6.80387L35.3639 6.71712L35.3205 6.67375L35.2771 6.63038C33.4056 4.80418 31.1855 3.3259 28.748 2.28228C28.7046 2.28228 28.7046 2.23891 28.6609 2.23891H28.5737C26.1797 1.2817 23.6551 0.76001 21 0.76001C18.2142 0.76001 15.5591 1.32536 13.1651 2.32533H13.1217H13.0782C10.7279 3.32531 8.59496 4.76018 6.81027 6.54298L6.76685 6.58635C6.76685 6.58635 6.72344 6.58635 6.72344 6.62972L6.6366 6.71647C4.80846 8.586 3.32862 10.8038 2.28389 13.2386C2.28389 13.282 2.24047 13.282 2.24047 13.3257V13.4127C1.28226 15.8042 0.76001 18.3261 0.76001 20.9785C0.76001 23.7613 1.32595 26.4136 2.32698 28.8051V28.8484V28.8918C3.32803 31.2396 4.76442 33.3703 6.54911 35.1965C6.59253 35.2398 6.63625 35.2835 6.67967 35.3269H6.72309L6.7665 35.3703C8.63801 37.1965 10.8581 38.6747 13.2956 39.7184C13.339 39.7184 13.339 39.7617 13.3827 39.7617H13.4261C15.7764 40.7183 18.3011 41.24 20.9562 41.24C23.742 41.24 26.3971 40.6747 28.8346 39.6313H28.878H28.9215C31.2718 38.6313 33.4048 37.1964 35.1894 35.4136C35.2766 35.3703 35.32 35.3266 35.3634 35.2398C37.1916 33.3703 38.7151 31.1526 39.7161 28.6743C39.7161 28.6743 39.7161 28.6309 39.7595 28.6309V28.5439C40.7178 26.1527 41.24 23.6308 41.24 20.9783L41.2399 20.9785ZM38.759 27.5007L34.624 25.892L39.8472 22.2396C39.76 24.0658 39.3683 25.8483 38.759 27.5007ZM28.9654 38.1535L27.1807 34.1099L33.4487 35.2404C32.0994 36.4144 30.5758 37.371 28.9654 38.1536V38.1535ZM8.55118 35.2403L14.8625 34.1099L13.2521 38.2842C11.5546 37.4577 9.98757 36.4578 8.55118 35.2403ZM2.10925 22.2395L7.37618 25.8918L3.28456 27.718C2.67488 26.0226 2.23983 24.1964 2.10925 22.2395ZM3.24088 14.4564L7.37587 16.0651L2.1527 19.7174C2.23984 17.8912 2.63151 16.1087 3.24088 14.4564ZM13.0345 3.80354L14.8192 7.84711L8.55118 6.71668C9.90044 5.58626 11.424 4.58604 13.0345 3.80346V3.80354ZM33.4487 6.71676L27.1373 7.84719L28.7477 3.67286C30.4453 4.49939 32.0123 5.49929 33.4487 6.71676ZM39.8906 19.7176L34.6237 16.0653L38.7153 14.2391C39.325 15.9345 39.76 17.7606 39.8906 19.7176ZM20.9998 28.8486L15.4284 26.5441L13.1214 20.9785L15.4284 15.413L20.9998 13.1085L26.5713 15.413L28.8782 20.9785L26.5713 26.5441L20.9998 28.8486ZM12.2509 19.6741L9.85684 16.413L13.8613 15.8043L12.2509 19.6741ZM13.9047 26.1963L9.90021 25.5442L12.2943 22.2831L13.9047 26.1963ZM29.7486 22.2831L32.1426 25.5442L28.0948 26.1963L29.7486 22.2831ZM28.0948 15.761L32.0993 16.4131L29.7486 19.6741L28.0948 15.761ZM32.752 15.1522L27.616 14.326L26.8323 9.23875L34.0579 7.93425L32.752 15.1522ZM25.6136 9.89089L26.2229 13.8911L22.3056 12.2824L25.6136 9.89089ZM20.9998 11.6303L16.821 8.58669L20.9998 2.54252L25.1785 8.54298L20.9998 11.6303ZM19.6939 12.239L15.7766 13.8477L16.4294 9.84747L19.6939 12.239ZM14.3836 14.3694L9.24754 15.1522L7.94165 7.93431L15.1672 9.23882L14.3836 14.3694ZM8.59447 16.8043L11.6413 20.9786L8.59447 25.1529L2.54421 20.9786L8.59447 16.8043ZM9.24756 26.8049L14.3836 27.6311L15.1672 32.7184L7.94167 34.0229L9.24756 26.8049ZM16.386 32.0663L15.7766 28.066L19.6939 29.6747L16.386 32.0663ZM20.9998 30.3269L25.1785 33.3705L20.9998 39.4146L16.821 33.4142L20.9998 30.3269ZM22.3057 29.7181L26.223 28.1094L25.5702 32.1097L22.3057 29.7181ZM27.616 27.5877L32.752 26.8049L34.0579 34.0228L26.8323 32.7183L27.616 27.5877ZM33.4051 25.1529L30.3583 20.9785L33.4051 16.8042L39.4554 20.9785L33.4051 25.1529ZM34.145 14.8044L35.2766 8.54306C36.4519 9.89089 37.4095 11.3692 38.193 13.0216L34.145 14.8044ZM25.9184 7.32567L22.2622 2.10803C24.0903 2.23845 25.8316 2.6297 27.4854 3.19505L25.9184 7.32567ZM16.0377 7.36904L14.2096 3.28175C15.9505 2.62966 17.779 2.19472 19.6939 2.06428L16.0377 7.36904ZM6.72295 8.5431L7.85458 14.8478L3.67582 13.2391C4.50322 11.5433 5.50419 9.97798 6.72295 8.5431ZM7.85458 27.153L6.72295 33.4143C5.54764 32.0665 4.59005 30.5882 3.80664 28.9358L7.85458 27.153ZM16.0812 34.6317L19.7374 39.8493C17.9093 39.7189 16.168 39.3277 14.5142 38.7623L16.0812 34.6317ZM25.9618 34.5883L27.79 38.6756C26.0491 39.3277 24.2206 39.7626 22.3056 39.8931L25.9618 34.5883ZM35.2766 33.4143L34.145 27.1096L38.3238 28.7183C37.4964 30.4141 36.4954 31.9794 35.2766 33.4143Z" fill="#0a466b"></path>
                                                    </svg>